<svg width="180" height="58" viewBox="0 0 180 58" fill="none" xmlns="http://www.w3.org/2000/svg">
<path d="M89.1238 1.04214L77.1026 57.1435H62.5547L74.5939 1.04214H89.1238ZM150.322 37.2652L157.974 16.195L162.385 37.2652H150.322ZM166.544 57.1435H180L168.261 1.04214H155.844C155.826 1.04214 155.802 1.04214 155.784 1.04214C153.029 1.04214 150.664 2.72511 149.668 5.11483L149.65 5.15675L127.834 57.1435H143.102L146.139 48.7586H164.798L166.544 57.1435ZM128.584 38.8284C128.644 24.0169 108.065 23.2024 108.209 16.5843C108.257 14.5719 110.171 12.4277 114.373 11.8827C115.153 11.8048 116.053 11.7569 116.965 11.7569C121.232 11.7569 125.277 12.7272 128.878 14.4641L128.716 14.3922L131.267 2.49153C127.228 0.928337 122.553 0.0179678 117.667 0H117.661C103.282 0 93.1688 7.63631 93.0788 18.5547C92.9888 26.6283 100.299 31.1262 105.814 33.8214C111.486 36.5704 113.388 38.3373 113.358 40.7869C113.322 44.5601 108.845 46.2131 104.656 46.279C104.464 46.285 104.23 46.285 104.002 46.285C98.7743 46.285 93.853 44.9734 89.5559 42.6555L89.7179 42.7334L87.0832 55.0233C91.8005 56.9099 97.2679 58 102.993 58C103.083 58 103.174 58 103.264 58H103.252C118.532 58 128.524 50.4715 128.578 38.8104L128.584 38.8284ZM68.3402 1.04214L44.7779 57.1435H29.4018L17.8067 12.3618C17.5847 10.1817 16.2463 8.36101 14.3858 7.45064L14.3498 7.43267C10.2207 5.4083 5.41945 3.76125 0.396106 2.72511L0 2.65923L0.348093 1.03614H25.0987C28.4716 1.03614 31.2743 3.49773 31.7965 6.71396L31.8025 6.7499L37.9301 39.2177L53.0661 1.03015L68.3402 1.04214Z" fill="#D9D9D9"/>
</svg>
