<svg width="92" height="33" viewBox="0 0 92 33" fill="none" xmlns="http://www.w3.org/2000/svg">
<path d="M9.75759 16.4989C7.42739 16.4989 5.1703 16.4989 2.96946 16.4989C2.87572 18.4279 2.83073 20.3251 2.67701 22.2185C2.54016 23.8982 2.16898 25.546 1.42661 27.1319C1.18103 27.655 0.886713 27.9999 0.13685 27.8743C0.0974821 27.8668 0.0487411 27.8968 0 27.9155C0 29.3103 0 30.6975 0 32.0848C0.68425 32.0848 1.32913 32.0848 2.0265 32.0848C2.0265 31.1418 2.0265 30.2364 2.0265 29.3328C4.48793 29.3328 6.90061 29.3328 9.36578 29.3328C9.36578 30.2664 9.36578 31.1699 9.36578 32.0923C10.0519 32.0923 10.6818 32.0923 11.3342 32.0923C11.3342 30.6825 11.3342 29.2915 11.3342 27.8612C10.7924 27.8612 10.2919 27.8612 9.75759 27.8612C9.75759 24.0556 9.75759 20.2932 9.75759 16.4989ZM7.55862 27.8462C6.03639 27.8462 4.53104 27.8462 3.11568 27.8462C3.49436 26.8976 3.9574 25.964 4.2386 24.9948C4.80287 23.0471 4.79912 21.0487 4.81412 19.0559C4.81787 18.7485 4.81412 18.4373 4.81412 18.0998C5.73457 18.0998 6.62691 18.0998 7.56049 18.0998C7.55862 21.3243 7.55862 24.558 7.55862 27.8462ZM22.1828 3.94056C20.8949 3.94056 19.6595 3.94056 18.3529 3.94056C18.3529 4.41673 18.3698 4.84415 18.351 5.27345C18.2873 6.76567 18.2329 8.25977 17.6105 9.68826C17.4568 10.0407 17.3424 10.4175 16.7482 10.3388C16.7482 11.1336 16.7482 11.891 16.7482 12.6446C17.1231 12.6446 17.4587 12.6446 17.8524 12.6446C17.8524 12.1291 17.8524 11.6379 17.8524 11.1467C19.2546 11.1467 20.5969 11.1467 22.001 11.1467C22.001 11.666 22.001 12.1572 22.001 12.6371C22.3946 12.6371 22.7265 12.6371 23.0452 12.6371C23.0452 11.8422 23.0452 11.0849 23.0452 10.3275C22.7452 10.3163 22.4903 10.305 22.1828 10.2938C22.1828 8.16416 22.1828 6.0608 22.1828 3.94056ZM20.9737 10.2938C20.1001 10.2938 19.279 10.2938 18.3941 10.2938C19.5133 8.56159 19.3615 6.70006 19.4421 4.84228C19.9538 4.84228 20.4488 4.84228 20.9737 4.84228C20.9737 6.65694 20.9737 8.45474 20.9737 10.2938ZM19.3765 28.1311C17.3912 28.5379 16.0939 27.9887 15.5278 26.5489C15.091 25.4429 15.1079 24.3012 15.0891 23.0958C17.2637 23.0958 19.3727 23.0958 21.5679 23.0958C21.4779 22.0929 21.4686 21.1143 21.2867 20.1676C21.0561 18.9809 20.5987 17.843 19.652 16.8869C18.8141 16.0415 17.8055 15.7959 16.5476 16.1371C15.241 16.4914 14.4442 17.3125 13.9081 18.2854C12.3371 21.1405 12.2021 24.0819 13.4057 27.0476C13.7675 27.9437 14.3805 28.7235 15.4003 29.2222C17.11 30.0639 19.8751 29.7715 21.6092 28.5586C21.4723 28.2211 21.3336 27.8799 21.2099 27.58C20.5669 27.7787 19.9876 28.0055 19.3765 28.1311ZM16.0677 18.4054C16.3733 17.9761 16.7801 17.6256 17.4624 17.6574C18.1298 17.693 18.5254 18.0417 18.7934 18.4954C19.3858 19.5133 19.4852 20.6044 19.4796 21.7367C17.9873 21.7367 16.5457 21.7367 15.0272 21.7367C15.1397 20.5369 15.3497 19.4159 16.0677 18.4054ZM27.0607 11.4898C27.5987 11.4336 28.1367 11.2817 28.6429 11.1055C29.2071 10.9105 29.2221 10.7306 28.8322 10.3144C28.4892 10.4138 28.1592 10.5337 27.8143 10.6031C26.8526 10.7981 26.1665 10.5843 25.8009 9.97883C25.3716 9.27021 25.3922 8.5091 25.4185 7.71237C26.652 7.71237 27.8368 7.71237 29.0459 7.71237C29.1247 6.52009 28.9784 5.4028 28.223 4.38673C27.5593 3.4944 26.4102 3.35192 25.4972 4.08492C25.1541 4.35861 24.8654 4.70917 24.663 5.06536C24.0968 6.05705 23.8813 7.12561 24.0144 8.20916C24.0987 8.88216 24.2843 9.56641 24.5711 10.2C24.9873 11.1317 25.949 11.6079 27.0607 11.4898ZM26.0202 4.94163C26.4289 4.4336 27.1038 4.4486 27.4656 4.981C27.8705 5.57152 27.9193 6.2239 27.9024 6.90815C27.0232 6.90815 26.2189 6.90815 25.3754 6.90815C25.4147 6.19203 25.5516 5.5284 26.0202 4.94163ZM35.7178 11.113C35.296 11.113 34.9455 11.1411 34.6043 11.098C34.4768 11.0811 34.3418 10.9218 34.2631 10.8037C33.6595 9.91135 33.0689 9.01339 32.4709 8.11543C32.3866 7.98795 32.291 7.86609 32.0679 7.72924C31.9929 8.01419 31.8617 8.29914 31.8504 8.58409C31.8204 9.41269 31.8392 10.245 31.8392 11.0943C31.4249 11.0943 31.0706 11.0943 30.6769 11.0943C30.6769 8.72469 30.6769 6.35325 30.6769 3.94244C31.0631 3.94244 31.4174 3.94244 31.8223 3.94244C31.8223 4.96413 31.8223 5.96519 31.8223 7.09186C32.0023 6.91752 32.096 6.84066 32.171 6.75255C32.8309 5.96707 33.5151 5.19471 34.1319 4.38486C34.4112 4.01743 34.7243 3.85058 35.2379 3.91994C35.3635 3.93681 35.4966 3.92182 35.7235 3.92182C35.6035 4.07929 35.5285 4.18802 35.4423 4.29112C34.7393 5.13285 34.0475 5.98207 33.3239 6.81441C33.1289 7.0375 33.1402 7.20059 33.292 7.42555C34.0925 8.62721 34.8761 9.83448 35.7178 11.113ZM14.2755 7.98607C13.5313 7.98607 12.8376 7.98607 12.0878 7.98607C12.0878 9.07712 12.0878 10.1569 12.0878 11.2667C11.6641 11.2667 11.2986 11.2667 10.8936 11.2667C10.8936 8.83529 10.8936 6.40949 10.8936 3.94056C11.2854 3.94056 11.6416 3.94056 12.0522 3.94056C12.0522 4.92663 12.0522 5.90333 12.0522 6.91002C12.8095 6.91002 13.5125 6.91002 14.268 6.91002C14.268 5.92395 14.268 4.94726 14.268 3.94994C14.6879 3.94994 15.0535 3.94994 15.4547 3.94994C15.4547 6.38887 15.4547 8.81842 15.4547 11.2705C15.0629 11.2705 14.6973 11.2705 14.2755 11.2705C14.2755 10.1738 14.2755 9.09212 14.2755 7.98607ZM32.1672 16.737C32.1991 16.7726 32.1729 16.8401 32.1729 16.8944C32.1729 20.9437 32.1729 24.9967 32.1729 29.0497C32.1729 29.1659 32.1579 29.2878 32.1485 29.4303C31.4492 29.4303 30.7744 29.4303 30.0451 29.4303C30.0451 27.4862 30.0451 25.5572 30.0451 23.5682C29.0516 23.5682 28.1105 23.5682 27.1694 23.5682C26.1758 23.5682 26.1758 23.5682 26.1758 24.3987C26.174 25.9078 26.1758 27.4094 26.1758 28.9204C26.1758 29.0778 26.1758 29.2391 26.1758 29.4265C25.456 29.4265 24.783 29.4265 24.08 29.4265C24.08 25.1092 24.08 20.8106 24.08 16.4895C24.7623 16.4895 25.4241 16.4895 26.1496 16.4895C26.1496 18.2554 26.1496 19.9989 26.1496 21.7779C27.4918 21.7779 28.7291 21.7779 30.0301 21.7779C30.0301 20.0139 30.0301 18.2592 30.0301 16.4801C30.6919 16.4801 31.2918 16.4708 31.8898 16.4951C31.9891 16.4989 32.0885 16.6432 32.1672 16.737ZM60.857 16.4539C61.5056 16.482 62.1542 16.4633 62.8347 16.4633C62.8347 20.8068 62.8347 25.1054 62.8347 29.434C62.0511 29.434 61.29 29.434 60.4689 29.434C60.4689 26.6033 60.4689 23.7707 60.4689 20.925C59.151 23.7838 57.8444 26.6183 56.5378 29.4415C55.8254 29.4415 55.173 29.4415 54.4813 29.4415C54.4813 25.1279 54.4813 20.8143 54.4813 16.4858C55.173 16.4858 55.8479 16.4858 56.5753 16.4858C56.5753 19.1609 56.5753 21.8154 56.5753 24.4699C56.6109 24.4737 56.639 24.4812 56.6746 24.4849C57.0402 23.7051 57.4151 22.9252 57.7769 22.1454C58.6036 20.3626 59.436 18.5835 60.2477 16.7951C60.3677 16.5383 60.5195 16.4426 60.857 16.4539ZM3.29752 11.2836C3.69495 11.3192 3.89929 11.1899 4.083 10.8955C4.78412 9.75762 5.52836 8.63658 6.25573 7.50803C6.59129 6.99063 6.63253 6.97563 7.42364 7.12748C7.42364 8.49223 7.42364 9.86823 7.42364 11.2424C7.90168 11.2424 8.31598 11.2424 8.76589 11.2424C8.76589 11.0061 8.76589 10.8074 8.76589 10.605C8.76589 7.25683 8.76589 3.90682 8.76589 0.556808C8.76589 3.50858e-05 8.76402 0.00191166 8.0704 3.70067e-05C7.43114 3.70067e-05 6.79563 0.00191166 6.15825 3.70067e-05C5.25841 -0.00371231 4.5123 0.277487 3.89929 0.819262C1.79405 2.68267 2.34707 6.22202 5.14781 6.97751C4.20673 8.391 3.27128 9.80074 2.29083 11.278C2.69013 11.278 2.99758 11.2573 3.29752 11.2836ZM4.82537 5.47966C4.02864 4.69793 3.8018 3.79434 4.09612 2.80265C4.1205 2.72391 4.15986 2.64893 4.19173 2.57394C4.78412 1.21106 5.56586 0.832385 7.38615 1.05922C7.38615 2.6883 7.38615 4.29487 7.38615 5.94645C6.47319 5.93707 5.52086 6.16391 4.82537 5.47966ZM37.0132 10.1963C36.3008 9.24959 36.1678 8.20353 36.2671 7.12561C36.3552 6.1864 36.627 5.29219 37.3225 4.51983C38.2224 3.51877 39.8777 3.32943 41.085 4.12241C40.9219 4.32674 40.7719 4.51796 40.6257 4.6998C40.5751 4.7073 40.5413 4.72042 40.5132 4.71292C39.051 4.31737 38.1718 4.67356 37.7293 5.86959C37.4013 6.74505 37.3338 7.64863 37.5231 8.5466C37.8831 10.2788 39.2553 10.8787 41.2443 10.215C41.428 11.0211 41.3231 11.1186 40.3839 11.3398C39.0528 11.651 37.7593 11.1861 37.0132 10.1963ZM91.965 17.4606C91.8432 16.7576 91.2508 16.3358 90.3941 16.3264C90.1297 16.3227 89.8673 16.3489 89.6105 16.3208C89.1043 16.2683 88.9712 16.437 88.975 16.8382C88.9993 18.8066 88.9918 20.7731 88.9843 22.7359C88.9787 23.7651 87.9739 24.8224 86.7666 25.0904C83.0173 25.9134 79.2717 26.7495 75.5205 27.565C75.0987 27.6568 74.6545 27.7037 74.2252 27.7C74.0377 27.7 73.779 27.5575 73.6984 27.4188C73.6459 27.3269 73.8109 27.1038 73.9402 26.9895C74.1108 26.8507 74.3283 26.7401 74.5513 26.6633C75.2393 26.4177 75.9386 26.1946 76.6341 25.964C79.418 25.0379 82.2074 24.1231 84.9876 23.1914C86.2417 22.7677 86.9185 21.9316 86.9391 20.8762C87.0028 17.4568 86.9709 14.0375 86.9559 10.6143C86.9559 10.0726 86.6747 9.62077 86.0299 9.38644C85.2875 9.12024 84.6351 9.33208 83.9902 9.63952C80.0497 11.5198 76.1111 13.3963 72.1687 15.2729C71.0082 15.8259 70.3615 16.6264 70.3671 17.7662C70.3802 20.9999 70.3709 24.2281 70.3746 27.4581C70.3746 27.6193 70.3915 27.7843 70.4421 27.938C70.8301 29.0366 71.8368 29.6665 73.2278 29.6665C76.0005 29.674 78.7824 29.6702 81.5569 29.6702C84.3221 29.6702 87.0778 29.674 89.8429 29.6665C90.4428 29.6665 90.9958 29.5427 91.4457 29.1716C92.0288 28.7029 91.9988 28.1068 91.9988 27.5125C92.0006 24.3612 92.0006 21.2155 91.9969 18.0624C92.0025 17.8655 91.9988 17.6593 91.965 17.4606ZM80.4359 16.4501C80.7152 15.7247 81.3245 15.271 82.2543 15.1548C82.8692 15.076 83.4053 15.4566 83.4935 16.0115C83.6266 16.8663 82.558 17.8599 81.5026 17.8561C80.6234 17.8561 80.1322 17.2394 80.4359 16.4501ZM39.9527 21.1405C39.1203 21.0768 38.273 21.1293 37.375 21.1293C37.375 19.5939 37.375 18.0417 37.375 16.4933C36.7376 16.4933 36.1602 16.4933 35.5679 16.4933C35.5679 20.76 35.5679 24.9967 35.5679 29.3815C36.9045 29.3815 38.1961 29.4584 39.4709 29.3609C41.3812 29.2184 42.8378 28.4592 43.5202 26.9014C43.9176 25.9978 43.9251 25.0567 43.7376 24.1119C43.3889 22.3722 42.0654 21.3149 39.9527 21.1405ZM40.9425 26.0671C40.6069 27.4919 39.1485 28.163 37.39 27.7468C37.39 26.1646 37.3825 24.6087 37.405 23.0489C37.405 22.9458 37.585 22.7771 37.7143 22.7527C39.4728 22.3797 40.6482 22.9646 40.9537 24.4324C41.0625 24.9592 41.0662 25.5385 40.9425 26.0671ZM45.676 16.4801C48.2837 16.4801 50.8407 16.4801 53.4315 16.4801C53.4315 16.9094 53.4315 17.32 53.4315 17.783C51.5024 17.783 49.5678 17.783 47.5957 17.783C47.5957 21.6917 47.5957 25.5479 47.5957 29.4321C46.9395 29.4321 46.3265 29.4321 45.6816 29.4321C45.676 25.1242 45.676 20.8181 45.676 16.4801Z" fill="#D9D9DB"/>
</svg>
