<svg width="32" height="32" viewBox="0 0 32 32" fill="none" xmlns="http://www.w3.org/2000/svg">
<path fill-rule="evenodd" clip-rule="evenodd" d="M15.6128 31.2257C24.235 31.2257 31.2257 24.235 31.2257 15.6128C31.2257 6.99065 24.235 0 15.6128 0C6.99065 0 0 6.99065 0 15.6128C0 24.235 6.99065 31.2257 15.6128 31.2257ZM19.2408 9.72114C17.8441 10.3012 11.1318 13.0887 5.89623 15.3919C4.53557 15.9907 4.20301 16.6136 5.60427 17.0945C5.63764 17.106 5.67582 17.1191 5.71837 17.1338C6.13969 17.2791 6.99028 17.5725 7.85954 17.8221C9.12574 18.1858 9.83144 17.9571 10.566 17.4583C11.0524 17.1281 14.8728 14.5918 17.6285 12.7643C17.9376 12.559 18.2741 12.9797 18.0063 13.2358C15.9618 15.1858 13.3381 17.6917 12.9376 18.0836C11.8568 19.1412 12.6425 19.6986 13.2825 20.1527C13.3086 20.1712 13.3345 20.1895 13.3599 20.2077C14.0727 20.7175 17.3553 22.8884 18.0055 23.3178C19.3576 24.21 20.2179 23.9657 20.6012 21.9032C21.0504 19.4861 21.5789 16.0499 21.9538 13.6123C22.1183 12.5427 22.2532 11.6654 22.3389 11.1507C22.73 8.80252 21.9454 8.59955 19.3888 9.65966C19.3493 9.67608 19.2998 9.69664 19.2408 9.72114Z" fill="#D9D9D9"/>
</svg>
