<svg width="30" height="30" viewBox="0 0 30 30" fill="none" xmlns="http://www.w3.org/2000/svg">
<g clip-path="url(#clip0_221_3510)">
<path fill-rule="evenodd" clip-rule="evenodd" d="M0.0130005 15.0781C0.0130005 6.79232 6.79226 0.0130615 15.078 0.0130615C23.3638 0.0130615 30.143 6.79232 30.143 15.0781C30.143 23.3638 23.3638 30.1431 15.078 30.1431C6.79226 30.1431 0.0130005 23.3638 0.0130005 15.0781ZM5.21045 9.65468C5.3611 17.4132 9.20268 22.008 15.9819 22.008H16.2079V17.5638C18.6936 17.8651 20.5768 19.6729 21.33 22.008H24.8703C23.9664 18.543 21.4053 16.5846 19.8235 15.8313C21.4053 14.9274 23.6651 12.6677 24.1924 9.65468H21.0287C20.3508 12.1404 18.317 14.3248 16.3586 14.5508V9.65468H13.1949V18.1664C11.2365 17.7145 8.6754 15.3041 8.60008 9.65468H5.21045Z" fill="#D9D9D9"/>
</g>
<defs>
<clipPath id="clip0_221_3510">
<rect width="30" height="30" fill="white"/>
</clipPath>
</defs>
</svg>
