<svg width="134" height="98" viewBox="0 0 134 98" fill="none" xmlns="http://www.w3.org/2000/svg">
<path d="M58.48 96.03C55.27 96.71 51.94 97.06 48.53 97.06C21.73 97.06 0 75.33 0 48.53C0 21.73 21.73 0 48.53 0C51.94 0 55.27 0.349999 58.48 1.03C41.92 10.39 30.71 28.18 30.71 48.53C30.71 68.88 41.92 86.67 58.48 96.03Z" fill="#D9D9DB"/>
<path d="M133.76 48.53C133.76 75.33 112.04 97.06 85.24 97.06C78.74 97.06 72.54 95.78 66.88 93.46C49.18 86.23 36.71 68.83 36.71 48.53C36.71 28.23 49.18 10.83 66.88 3.59999C72.54 1.27999 78.74 0 85.24 0C112.04 0 133.76 21.73 133.76 48.53Z" fill="#D9D9DB"/>
</svg>
