<svg width="27" height="26" viewBox="0 0 27 26" fill="none" xmlns="http://www.w3.org/2000/svg">
<path d="M7.68273 0C3.44671 0 0 3.38824 0 7.55098V18.3355C0 22.4977 3.44875 25.8844 7.68582 25.8844H18.6629C22.8995 25.8844 26.3467 22.4962 26.3467 18.3335V7.54795C26.3467 3.38624 22.8979 0 18.6609 0H7.68273ZM21.0773 4.14151C21.6591 4.14151 22.1312 4.60536 22.1312 5.17689C22.1312 5.74842 21.6591 6.21227 21.0773 6.21227C20.4956 6.21227 20.0235 5.74842 20.0235 5.17689C20.0235 4.60536 20.4956 4.14151 21.0773 4.14151ZM13.1733 6.21227C16.9514 6.21227 20.0235 9.23039 20.0235 12.9422C20.0235 16.6541 16.9509 19.6722 13.1733 19.6722C9.39522 19.6722 6.3232 16.6535 6.3232 12.9422C6.3232 9.23091 9.39522 6.21227 13.1733 6.21227ZM13.1733 8.28302C10.5539 8.28302 8.43093 10.3688 8.43093 12.9422C8.43093 15.5157 10.5539 17.6014 13.1733 17.6014C15.7927 17.6014 17.9157 15.5157 17.9157 12.9422C17.9157 10.3688 15.7927 8.28302 13.1733 8.28302Z" fill="#D9D9D9"/>
</svg>
